<?xml version="1.0" encoding="UTF-8"?>
<svg xmlns="http://www.w3.org/2000/svg" xmlns:xlink="http://www.w3.org/1999/xlink" width="18px" height="18px" viewBox="0 0 18 18" version="1.1">
<g id="surface1">
<path style=" stroke:none;fill-rule:nonzero;fill:rgb(51.764706%,7.843137%,45.490196%);fill-opacity:1;" d="M 0 9 C 0 0.742188 3 0 9 0 C 15 0 18 0.898438 18 9 C 18 17.230469 15 18 9 18 C 3 18 0 16.878906 0 9 Z M 0 9 "/>
<path style=" stroke:none;fill-rule:nonzero;fill:rgb(100%,100%,100%);fill-opacity:1;" d="M 14.464844 8.730469 C 14.46875 5.796875 12.152344 3.386719 9.222656 3.265625 C 6.292969 3.148438 3.789062 5.363281 3.550781 8.285156 C 3.316406 11.210938 5.429688 13.796875 8.339844 14.152344 L 8.339844 16.269531 L 12.375 13.023438 C 12.425781 12.984375 12.476562 12.941406 12.527344 12.898438 L 12.671875 12.78125 L 12.65625 12.78125 C 13.808594 11.75 14.464844 10.277344 14.464844 8.730469 Z M 9.042969 11.8125 C 8.230469 11.816406 7.449219 11.492188 6.871094 10.917969 L 7.414062 10.375 C 8.316406 11.269531 9.773438 11.269531 10.671875 10.375 L 11.214844 10.917969 C 10.640625 11.492188 9.859375 11.816406 9.042969 11.8125 Z M 9.042969 11.8125 "/>
</g>
</svg>
