<svg id="Layer_1" data-name="Layer 1" xmlns="http://www.w3.org/2000/svg" viewBox="0 0 350 350"><defs><style>.cls-1{fill:#841474;}.cls-2{fill:#fff;}</style></defs><title>SVG logo</title><path class="cls-1" d="M0,175C0,14.4,58.33,0,175,0S350,17.5,350,175c0,160-58.33,175-175,175S0,328.17,0,175Z"/><path class="cls-2" d="M281.27,169.77a106.27,106.27,0,1,0-119.1,105.42v41.16l78.45-63.1c1-.81,2-1.61,3-2.45l2.79-2.25h-.32A105.89,105.89,0,0,0,281.27,169.77ZM175.85,229.71a59.49,59.49,0,0,1-42.21-17.45l10.55-10.55a44.84,44.84,0,0,0,63.32,0l10.55,10.55A59.49,59.49,0,0,1,175.85,229.71Z"/></svg>